<svg id="Capa_1" enable-background="new 0 0 512 512" height="512" viewBox="0 0 512 512" width="512" xmlns="http://www.w3.org/2000/svg"><g><path d="m424.251 30.48c0-16.806-13.673-30.48-30.479-30.48h-28.618c-4.151 0-7.515 3.364-7.515 7.515s3.364 7.515 7.515 7.515h28.618c8.52 0 15.45 6.931 15.45 15.45s-6.931 15.451-15.45 15.451h-275.543c-8.52 0-15.451-6.931-15.451-15.451s6.931-15.45 15.451-15.45h216.865c4.151 0 7.515-3.364 7.515-7.515s-3.364-7.515-7.515-7.515h-216.865c-16.807 0-30.48 13.673-30.48 30.48 0 16.225 12.743 29.526 28.746 30.428v118.752c0 2.522 1.265 4.876 3.368 6.267l21.093 13.954c3.461 2.29 8.124 1.34 10.414-2.121s1.34-8.123-2.121-10.413l-17.725-11.726v-114.661h59.525v154.041l-16.7-11.048c-3.462-2.292-8.125-1.342-10.413 2.121-2.29 3.461-1.341 8.123 2.121 10.413l72.836 48.185c-8.234 5.528-13.664 14.923-13.664 25.564 0 10.152 4.944 19.167 12.548 24.775-.426.561-.836 1.137-1.214 1.742l-23.142 37.048c-1.089 1.744-2.787 2.978-4.783 3.475l-42.385 10.561c-7.72 1.923-13.797 7.589-16.255 15.156-2.459 7.566-.873 15.723 4.242 21.817l28.083 33.457c1.322 1.574 1.971 3.571 1.827 5.622l-3.054 43.574c-.556 7.936 2.954 15.467 9.39 20.143 6.437 4.676 14.684 5.688 22.059 2.707l40.498-16.37c1.905-.772 4.006-.772 5.912 0l40.498 16.37c2.797 1.131 5.719 1.687 8.62 1.687 4.749 0 9.442-1.491 13.438-4.394 6.436-4.676 9.947-12.207 9.391-20.143l-3.055-43.573c-.144-2.052.506-4.049 1.827-5.623l3.474-4.138c2.668-3.179 2.254-7.919-.924-10.587-3.177-2.667-7.918-2.253-10.587.924l-3.474 4.138c-3.841 4.575-5.726 10.377-5.308 16.337l3.055 43.574c.194 2.772-.984 5.299-3.233 6.934-2.25 1.632-5.017 1.974-7.593.932l-40.497-16.37c-5.539-2.238-11.639-2.239-17.178 0l-40.497 16.37c-2.577 1.04-5.344.701-7.593-.932-2.249-1.634-3.427-4.161-3.232-6.934l3.054-43.574c.418-5.959-1.467-11.76-5.308-16.337l-28.083-33.457c-1.787-2.128-2.32-4.866-1.46-7.509.859-2.644 2.898-4.545 5.596-5.217l42.385-10.561c5.798-1.444 10.732-5.03 13.896-10.096l23.142-37.048c1.47-2.354 3.904-3.704 6.678-3.709h.012.011c2.775.004 5.208 1.355 6.679 3.71l23.142 37.046c3.163 5.067 8.099 8.652 13.896 10.097l42.386 10.561c2.697.672 4.736 2.573 5.595 5.216.859 2.644.327 5.382-1.46 7.51l-5.235 6.236c-2.668 3.179-2.255 7.919.924 10.587 3.179 2.669 7.919 2.254 10.587-.924l5.236-6.237c5.115-6.094 6.701-14.25 4.242-21.817s-8.536-13.232-16.255-15.155l-42.385-10.561c-1.995-.497-3.694-1.731-4.783-3.475l-23.142-37.047c-.378-.606-.789-1.181-1.215-1.742 7.604-5.608 12.549-14.624 12.549-24.776 0-10.641-5.431-20.036-13.665-25.564l119.029-78.745c2.104-1.391 3.369-3.746 3.369-6.267v-118.752c16.003-.902 28.747-14.203 28.747-30.428zm-218.172 30.48h99.842v163.983l-49.921 33.026-49.921-33.025zm49.921 245.018c-8.68 0-15.742-7.062-15.742-15.742s7.062-15.742 15.742-15.742 15.742 7.062 15.742 15.742-7.062 15.742-15.742 15.742zm124.475-130.357-59.525 39.379v-154.04h59.525z"/></g></svg>