<svg id="Capa_1" enable-background="new 0 0 512 512" height="512" viewBox="0 0 512 512" width="512" xmlns="http://www.w3.org/2000/svg"><g><g><path d="m511.984 116.129c0-4.157-3.37-7.527-7.527-7.526s-7.527 3.37-7.526 7.527l.016 197.767c.001 9.05-7.322 16.374-16.373 16.375-9.029.001-16.375-7.344-16.376-16.373l-.022-270.104c-.001-9.049 7.322-16.375 16.373-16.376 9.029 0 16.375 7.344 16.376 16.373l.003 37.011c0 4.157 3.37 7.527 7.527 7.526s7.527-3.37 7.526-7.527l-.003-37.011c-.001-17.33-14.101-31.427-31.43-31.425-17.33.001-31.427 14.101-31.425 31.43l.001 7.77c-32.702 36.183-79.192 56.892-128.021 56.896-24.958.002-89.303.007-112.674.009-13.66.001-25.019 10.019-27.129 23.093h-1.399c-27.28.002-49.36 22.082-49.358 49.366.002 27.277 22.077 49.359 49.362 49.358h.004 2.386c1.322 4.076 3.591 7.813 6.709 10.93 5.192 5.192 12.095 8.05 19.437 8.05h1.113v13.415c-19.251 1.992-36.785 11.584-48.932 27.009-9.991 11.135-13.931 22.495-28.804 26.809v-9.187c0-8.894-7.236-16.129-16.129-16.129h-25.44c-7.485 0-13.777 5.133-15.588 12.058h-58.369c-8.983-.001-16.292 7.307-16.292 16.291v151.75c0 8.984 7.309 16.292 16.292 16.292h58.369c1.811 6.925 8.103 12.058 15.588 12.058h25.437c8.894 0 16.129-7.236 16.129-16.129v-10.909c5.294.265 11.13-.949 19.28 2.298 14.626 4.69 42.905 22.61 89.765 22.61h48.936c13.733 0 24.905-11.172 24.905-24.905v-11.112c0-4.431-1.163-8.596-3.201-12.205 8.465-3.982 14.339-12.593 14.339-22.551v-11.112c0-4.809-1.37-9.303-3.74-13.114 7.515-4.292 12.592-12.385 12.592-21.642v-11.112c0-5.343-1.692-10.298-4.566-14.359 6.423-4.509 10.63-11.972 10.63-20.398v-11.114c0-13.732-11.172-24.904-24.903-24.904l-20.44-.005 6.992-49.712c4.809 0 13.879-.001 18.709-.002h.013c48.822 0 95.314 20.702 128.018 56.876l.001 7.767c.001 17.33 14.101 31.427 31.43 31.425 17.368-.001 31.427-14.058 31.425-31.43zm-332.081 99.105c-18.916 0-34.307-15.389-34.308-34.306-.002-18.961 15.341-34.31 34.306-34.312h1.044l.005 68.617c-.585.001-.456.001-1.047.001zm28.535 18.98c-3.321.001-6.443-1.293-8.792-3.641-2.112-2.111-3.361-4.85-3.594-7.795 0-.006.001-.012.001-.019-.024-102.939-.055-84.617-.056-86.8 0-6.856 5.576-12.434 12.432-12.435l89.175-.007.009 110.689zm-91.676 249.29c0 .593-.483 1.076-1.076 1.076h-25.437c-.593 0-1.076-.483-1.076-1.076v-105.85c0-4.157-3.37-7.527-7.527-7.527s-7.527 3.37-7.527 7.527v94.868h-57.827c-.683 0-1.238-.556-1.238-1.239v-151.75c0-.683.556-1.239 1.238-1.239h57.828v24.172c0 4.157 3.37 7.527 7.527 7.527s7.527-3.37 7.527-7.527v-35.154c0-.593.483-1.076 1.076-1.076h25.437c.593 0 1.076.483 1.076 1.076v176.192zm208.94-159.624v11.113c0 5.432-4.419 9.851-9.851 9.851h-6.064c-4.157 0-7.527 3.37-7.527 7.527s3.37 7.527 7.527 7.527c5.432 0 9.851 4.419 9.851 9.851v11.112c0 5.432-4.419 9.851-9.851 9.851h-8.852c-4.157 0-7.527 3.37-7.527 7.527s3.37 7.527 7.527 7.527c5.432 0 9.851 4.419 9.851 9.852v11.112c0 5.432-4.419 9.852-9.851 9.852h-11.138c-4.157 0-7.527 3.37-7.527 7.527s3.37 7.527 7.527 7.527c5.432 0 9.851 4.419 9.851 9.851v11.112c0 5.432-4.419 9.851-9.852 9.851h-48.936c-42.994 0-67.982-16.302-84.194-21.541-11.622-4.63-20.327-3.101-24.851-3.367v-125.57c24.214-4.686 31.745-23.696 40.631-32.968 9.271-11.772 22.508-19.251 37.106-21.171v13.239c0 12.645 10.288 22.935 22.933 22.938 15.618.003 67.297.015 83.365.019 5.432 0 9.852 4.419 9.852 9.851zm-45.491-24.912-47.722-.011c-4.347-.001-7.883-3.538-7.883-7.885v-21.258-20.549l62.597-.005zm40.915-64.764c-.003 0-.011 0-.014 0l-8.446.001-.009-110.689h8.446c47.75-.004 93.443-18.218 128.022-50.503l.017 211.674c-34.58-32.277-80.27-50.483-128.016-50.483z"/></g></g></svg>