<?xml version="1.0" encoding="iso-8859-1"?>
<!-- Generator: Adobe Illustrator 17.1.0, SVG Export Plug-In . SVG Version: 6.00 Build 0)  -->
<!DOCTYPE svg PUBLIC "-//W3C//DTD SVG 1.1//EN" "http://www.w3.org/Graphics/SVG/1.1/DTD/svg11.dtd">
<svg version="1.1" id="Capa_1" xmlns="http://www.w3.org/2000/svg" xmlns:xlink="http://www.w3.org/1999/xlink" x="0px" y="0px"
	 viewBox="0 0 470 470" style="enable-background:new 0 0 470 470;" xml:space="preserve">
<g>
	<path d="M401.17,68.83C356.785,24.444,297.771,0,235,0S113.215,24.444,68.83,68.83C24.444,113.215,0,172.229,0,235
		s24.444,121.785,68.83,166.17C113.215,445.556,172.229,470,235,470s121.785-24.444,166.17-68.83
		C445.556,356.785,470,297.771,470,235S445.556,113.215,401.17,68.83z M235,455c-121.309,0-220-98.691-220-220S113.691,15,235,15
		s220,98.691,220,220S356.309,455,235,455z"/>
	<path d="M384.653,148.95c3.495-2.224,4.524-6.86,2.299-10.354C353.631,86.25,296.826,55,235,55S116.369,86.251,83.047,138.596
		c-2.225,3.494-1.195,8.13,2.299,10.354c1.248,0.795,2.643,1.174,4.02,1.174c2.479,0,4.905-1.228,6.334-3.474
		C126.254,98.655,178.329,70,235,70s108.746,28.654,139.299,76.65C376.524,150.145,381.159,151.175,384.653,148.95z"/>
	<path d="M353.277,304.702c4.142,0,7.5-3.358,7.5-7.5V174.799c0-21.875-17.797-39.673-39.673-39.673
		c-19.312,0-35.446,13.871-38.962,32.173h-5.34V130h7.052c4.142,0,7.5-3.358,7.5-7.5s-3.358-7.5-7.5-7.5h-13.694
		c-0.145,0-0.286,0.013-0.429,0.021c-0.143-0.008-0.284-0.021-0.429-0.021H258.15c-10.757,0-19.508,8.751-19.508,19.508v32.791
		h-7.284v-32.791c0-10.757-8.751-19.508-19.508-19.508h-11.151c-0.145,0-0.286,0.013-0.429,0.021
		c-0.143-0.008-0.284-0.021-0.429-0.021h-13.694c-4.142,0-7.5,3.358-7.5,7.5s3.358,7.5,7.5,7.5h7.052v37.299h-5.34
		c-3.516-18.302-19.65-32.173-38.962-32.173c-21.875,0-39.673,17.797-39.673,39.673v122.403c0,4.142,3.358,7.5,7.5,7.5
		c35.581,0,65.536-26.047,71.069-60.483h5.22c2.005,12.655,9.031,23.694,19.357,30.462l-25.142,50.777
		c-0.903,1.824-1.026,3.936-0.342,5.852c0.685,1.916,2.118,3.472,3.972,4.31c0.756,0.342,18.818,8.38,44.142,8.38
		s43.386-8.038,44.142-8.38c1.854-0.838,3.288-2.394,3.972-4.31c0.684-1.916,0.561-4.028-0.342-5.852l-25.142-50.777
		c10.326-6.769,17.353-17.807,19.357-30.462h5.22C287.741,278.655,317.696,304.702,353.277,304.702z M296.376,235.964
		c-0.115-1.118-1.058-6.698-8.308-6.738l-0.677-0.004c-0.063-0.001-0.126-0.002-0.19-0.002h-17.125c-4.142,0-7.5,3.358-7.5,7.5
		c0,12.269-7.135,23.456-17.755,27.838c-1.921,0.793-3.427,2.347-4.159,4.292c-0.732,1.945-0.624,4.107,0.298,5.969l24.621,49.724
		C258.842,326.553,247.978,329,235,329c-12.979,0-23.846-2.448-30.581-4.458l24.621-49.724c0.922-1.862,1.03-4.024,0.298-5.969
		c-0.731-1.945-2.238-3.499-4.159-4.292c-10.62-4.382-17.755-15.569-17.755-27.838c0-4.142-3.358-7.5-7.5-7.5h-17.125
		c-0.064,0-0.127,0.001-0.19,0.002l-0.677,0.004c-7.25,0.04-8.192,5.62-8.308,6.738c-0.011,0.103-0.019,0.206-0.025,0.309
		c-1.685,27.428-22.767,49.415-49.375,52.937v-114.41c0-13.604,11.068-24.673,24.673-24.673s24.673,11.068,24.673,24.673
		c0,4.142,3.358,7.5,7.5,7.5h19.629c4.142,0,7.5-3.358,7.5-7.5V130h3.651c2.486,0,4.508,2.022,4.508,4.508v40.291
		c0,4.142,3.358,7.5,7.5,7.5h22.284c4.142,0,7.5-3.358,7.5-7.5v-40.291c0-2.486,2.022-4.508,4.508-4.508h3.651v44.799
		c0,4.142,3.358,7.5,7.5,7.5h19.629c4.142,0,7.5-3.358,7.5-7.5c0-13.604,11.068-24.673,24.673-24.673s24.673,11.068,24.673,24.673
		v114.41c-26.609-3.521-47.69-25.509-49.375-52.937C296.395,236.17,296.387,236.067,296.376,235.964z"/>
	<path d="M207.5,396.333c-4.142,0-7.5,3.358-7.5,7.5s3.358,7.5,7.5,7.5h55c4.142,0,7.5-3.358,7.5-7.5s-3.358-7.5-7.5-7.5H207.5z"/>
	<path d="M297.5,370.167c0-4.142-3.358-7.5-7.5-7.5H180c-4.142,0-7.5,3.358-7.5,7.5s3.358,7.5,7.5,7.5h110
		C294.142,377.667,297.5,374.309,297.5,370.167z"/>
	<path d="M420.724,316.041c-3.73-1.801-8.214-0.239-10.016,3.491C378.288,386.639,309.318,430,235,430
		c-101.597,0-187.015-79.307-194.464-180.55c-0.304-4.13-3.896-7.228-8.03-6.93c-4.131,0.304-7.233,3.899-6.93,8.03
		c3.877,52.693,27.402,101.68,66.242,137.938C130.856,424.93,181.706,445,235,445c40.207,0,79.308-11.449,113.078-33.11
		c32.865-21.08,59.192-50.761,76.137-85.833C426.016,322.327,424.453,317.843,420.724,316.041z"/>
	<path d="M235,25c-53.294,0-104.144,20.07-143.182,56.512c-38.84,36.257-62.365,85.245-66.242,137.938
		c-0.304,4.131,2.799,7.726,6.93,8.03c4.131,0.3,7.727-2.798,8.03-6.93C47.985,119.307,133.403,40,235,40
		c107.523,0,195,87.477,195,195c0,19.644-2.928,39.043-8.703,57.662c-1.227,3.956,0.985,8.158,4.942,9.385
		c0.74,0.229,1.488,0.339,2.224,0.339c3.199,0,6.163-2.063,7.161-5.28C441.845,277.047,445,256.151,445,235
		C445,119.206,350.794,25,235,25z"/>
</g>
<g>
</g>
<g>
</g>
<g>
</g>
<g>
</g>
<g>
</g>
<g>
</g>
<g>
</g>
<g>
</g>
<g>
</g>
<g>
</g>
<g>
</g>
<g>
</g>
<g>
</g>
<g>
</g>
<g>
</g>
</svg>
