<svg id="Layer_3" enable-background="new 0 0 64 64" height="512" viewBox="0 0 64 64" width="512" xmlns="http://www.w3.org/2000/svg"><g><path d="m58 1h-52c-2.757 0-5 2.243-5 5v37c0 2.757 2.243 5 5 5h18.713c.819 1.17 1.287 2.562 1.287 4 0 1.044-.246 2.066-.689 3h-4.311c-2.757 0-5 2.243-5 5v2c0 .552.447 1 1 1h30c.553 0 1-.448 1-1v-2c0-2.757-2.243-5-5-5h-4.311c-.444-.934-.689-1.957-.689-3 0-1.457.456-2.823 1.283-4h18.717c2.757 0 5-2.243 5-5v-37c0-2.757-2.243-5-5-5zm-52 2h52c1.654 0 3 1.346 3 3v28h-2v-27c0-1.103-.897-2-2-2h-50c-1.103 0-2 .897-2 2v27h-2v-28c0-1.654 1.346-3 3-3zm34.168 13.003c.836-.639 1.865-1.003 2.937-1.003 2.064 0 3.916 1.337 4.608 3.328.141.402.519.672.945.672h8.342v2h-8.354c-.425 0-.803.268-.943.668-.603 1.714-2.096 2.997-3.806 3.268-1.361.218-2.696-.14-3.735-.94 2.131-.084 3.838-1.845 3.838-3.996 0-2.149-1.704-3.908-3.832-3.997zm16.832.997h-7.67c-1.131-2.419-3.55-4-6.225-4-2.457 0-4.746 1.344-5.974 3.506-.176.31-.174.689.005.997s.509.497.865.497h1.999c1.103 0 2 .897 2 2s-.897 2-2.001 2l-2 .001c-.355 0-.685.189-.863.498-.179.308-.181.688-.005.997 1.253 2.202 3.52 3.504 5.975 3.504.365 0 .734-.029 1.105-.087 2.193-.349 4.13-1.854 5.104-3.912h7.685v11h-50v-27.001h50zm-11 43v1h-28v-1c0-1.654 1.346-3 3-3h22c1.654 0 3 1.346 3 3zm-9.467-5h-9.066c.34-.96.533-1.971.533-3 0-1.396-.334-2.764-.947-4h9.894c-.612 1.237-.947 2.607-.947 4 0 1.028.194 2.04.533 3zm21.467-9h-52c-1.654 0-3-1.346-3-3v-7h58v7c0 1.654-1.346 3-3 3z"/><path d="m32 38c-1.654 0-3 1.346-3 3s1.346 3 3 3 3-1.346 3-3-1.346-3-3-3zm0 4c-.552 0-1-.449-1-1s.448-1 1-1 1 .449 1 1-.448 1-1 1z"/><path d="m14 23h1.382l.401.803-1.49 1.49c-.391.391-.391 1.023 0 1.414l3 3c.391.391 1.023.391 1.414 0l1.49-1.49.803.401v1.382c0 .552.447 1 1 1h4c.553 0 1-.448 1-1v-1.382l.803-.401 1.49 1.49c.391.391 1.023.391 1.414 0l3-3c.391-.391.391-1.023 0-1.414l-1.49-1.49.401-.803h1.382c.553 0 1-.448 1-1v-4c0-.552-.447-1-1-1h-1.382l-.401-.803 1.49-1.49c.391-.391.391-1.023 0-1.414l-3-3c-.391-.391-1.023-.391-1.414 0l-1.49 1.49-.803-.401v-1.382c0-.552-.447-1-1-1h-4c-.553 0-1 .448-1 1v1.382l-.803.401-1.49-1.49c-.391-.391-1.023-.391-1.414 0l-3 3c-.391.391-.391 1.023 0 1.414l1.49 1.49-.401.803h-1.382c-.553 0-1 .448-1 1v4c0 .552.447 1 1 1zm1-4h1c.379 0 .725-.214.895-.553l1-2c.192-.385.117-.85-.188-1.154l-1.293-1.293 1.586-1.586 1.293 1.293c.306.305.771.379 1.154.188l2-1c.339-.17.553-.516.553-.895v-1h2v1c0 .379.214.725.553.895l2 1c.385.19.849.117 1.154-.188l1.293-1.293 1.586 1.586-1.293 1.293c-.305.304-.38.769-.188 1.154l1 2c.17.339.516.553.895.553h1v2h-1c-.379 0-.725.214-.895.553l-1 2c-.192.385-.117.85.188 1.154l1.293 1.293-1.586 1.586-1.293-1.293c-.305-.304-.769-.377-1.154-.188l-2 1c-.339.17-.553.516-.553.895v1h-2v-1c0-.379-.214-.725-.553-.895l-2-1c-.385-.191-.849-.118-1.154.188l-1.293 1.293-1.586-1.586 1.293-1.293c.305-.304.38-.769.188-1.154l-1-2c-.17-.339-.516-.553-.895-.553h-1z"/><path d="m24 25c2.757 0 5-2.243 5-5s-2.243-5-5-5-5 2.243-5 5 2.243 5 5 5zm0-8c1.654 0 3 1.346 3 3s-1.346 3-3 3-3-1.346-3-3 1.346-3 3-3z"/></g></svg>