<svg id="Layer_1" height="512" viewBox="0 0 512 512" width="512" xmlns="http://www.w3.org/2000/svg" data-name="Layer 1"><path d="m398.4 302.616 2.125-5.9a6 6 0 0 0 -3.612-7.678l-64.024-23.058a6 6 0 0 0 -7.678 3.612l-.587 1.629-22.109-11.858v-5.641a68.136 68.136 0 0 0 21.91-40.106l4.446-28.362a18.4 18.4 0 0 0 9.129-33.109 120.677 120.677 0 0 0 4.8-18.992h2.053a17.6 17.6 0 0 0 6.547-33.938 95.516 95.516 0 0 0 -190.794 0 17.6 17.6 0 0 0 6.549 33.938h1.545a93.365 93.365 0 0 0 4.447 14.525l2.273 5.716a18.4 18.4 0 0 0 10.643 31.861l4.445 28.362a68.076 68.076 0 0 0 19.131 37.483v10.352l-21.879 10.836-.971-2.7a6 6 0 0 0 -7.678-3.612l-64.019 23.061a6 6 0 0 0 -3.612 7.678l2.125 5.9a84.461 84.461 0 0 0 -30.964 65.185v82.73a6 6 0 0 0 6 6h130.559l-1.536 8.99a6 6 0 0 0 1.767 5.346l32.42 31.009a6 6 0 0 0 8.294 0l32.42-31.009a6 6 0 0 0 1.78-5.269l-1.428-9.067h130.44a6 6 0 0 0 6-6v-82.73a84.461 84.461 0 0 0 -30.957-65.184zm-18.725-7.03 7.525 2.714-3.663 10.169-7.527-2.711zm-25.447-9.166 14.158 5.1-3.664 10.168-14.156-5.1zm-19.761-7.12 8.467 3.05-3.663 10.168-8.467-3.05zm-24.216 53.641-44.306-26.468 32.414-29.121zm-36.026-7.541-8.135 17.824h-18.818l-9.351-18.108 18.055-10.616zm-49.418-53.666a9.352 9.352 0 0 1 -3.168-7.016v-4.078c1.283.8 2.593 1.566 3.936 2.282a67.662 67.662 0 0 0 63.782 0c.39-.208.773-.424 1.158-.64v2.418a9.356 9.356 0 0 1 -3.182 7.028l-31.325 27.5zm31.193-251.272a83.609 83.609 0 0 1 83.274 77.476h-166.548a83.609 83.609 0 0 1 83.274-77.476zm-88.848 100.691a5.608 5.608 0 0 1 0-11.215h177.7a5.608 5.608 0 0 1 0 11.215zm163.47 12c-.268 1.435-.572 2.864-.9 4.287v-4.287zm-145.414 0v12.382l-.912-2.293a80.991 80.991 0 0 1 -3.264-10.089zm17.154 78.605-5.226-33.342a6 6 0 0 0 -5.928-5.071h-3.308a6.424 6.424 0 0 1 0-12.847h3.313a6 6 0 0 0 6-6v-21.345h120.512v21.347a6 6 0 0 0 6 6h3.312a6.424 6.424 0 1 1 0 12.847h-3.312a6 6 0 0 0 -5.928 5.071l-5.228 33.342a55.777 55.777 0 0 1 -110.207 0zm11.53 65.743 32.133 28.929-45.014 26.47zm-36.359 1.8 3.663 10.168-7.934 2.858-3.662-10.165zm-19.223 6.924 3.663 10.168-14.157 5.1-3.663-10.169zm-25.446 9.166 3.663 10.168-8.06 2.9-3.667-10.159zm25.611 149.135v-52.68a6 6 0 0 0 -12 0v52.683h-51.834v-76.729a72.411 72.411 0 0 1 23.323-53.083l1.247 3.462a5.993 5.993 0 0 0 7.678 3.611l64.019-23.061a6 6 0 0 0 3.612-7.678l-2.681-7.441c2.5-1.128 4.972-2.294 7.372-3.5l1.987-1-15.042 64.69a6 6 0 0 0 8.885 6.53l32.521-19.124 9.8 18.985-16.115 94.335zm97.525 44.709-25.969-24.835 18.649-109.175h16.137l17.188 109.137zm161.359-44.706h-51.834v-52.683a6 6 0 0 0 -12 0v52.683h-62.5l-14.875-94.455 8.435-18.481 31.334 18.719a6 6 0 0 0 8.944-6.406l-14.2-66.388c3.284 1.776 6.582 3.47 9.867 5.062l-3.052 8.47a6 6 0 0 0 3.612 7.678l64.019 23.061a5.993 5.993 0 0 0 7.678-3.611l1.247-3.462a72.411 72.411 0 0 1 23.325 53.084z"/><path d="m118.457 344.555a6 6 0 0 0 -6 6v7.15a6 6 0 0 0 12 0v-7.15a6 6 0 0 0 -6-6z"/><path d="m118.457 371.666a6 6 0 0 0 -6 6v51.886a6 6 0 0 0 12 0v-51.886a6 6 0 0 0 -6-6z"/></svg>